<?xml version="1.0" encoding="UTF-8"?><!DOCTYPE svg PUBLIC "-//W3C//DTD SVG 1.1//EN" "http://www.w3.org/Graphics/SVG/1.1/DTD/svg11.dtd"><svg xmlns="http://www.w3.org/2000/svg" xmlns:xlink="http://www.w3.org/1999/xlink" version="1.1" width="24" height="24" viewBox="0 0 24 24"><path d="M15,14C17.67,14 23,15.34 23,18V20H7V18C7,15.34 12.33,14 15,14M15,12A4,4 0 0,1 11,8A4,4 0 0,1 15,4A4,4 0 0,1 19,8A4,4 0 0,1 15,12M2.76,14.66C2.37,15.05 1.73,15.05 1.34,14.66C0.95,14.27 0.95,13.63 1.34,13.24L3.29,11.29C3.1,10.9 3,10.46 3,10A3,3 0 0,1 6,7A3,3 0 0,1 9,10A3,3 0 0,1 6,13C5.54,13 5.1,12.9 4.71,12.71L2.76,14.66M6,9A1,1 0 0,0 5,10A1,1 0 0,0 6,11A1,1 0 0,0 7,10A1,1 0 0,0 6,9Z" /></svg>